<svg width="251" height="141" viewBox="0 0 251 141" fill="none" xmlns="http://www.w3.org/2000/svg">
<path d="M136.334 108.79C135.907 108.317 135.513 107.81 135.149 107.283C132.255 112.226 127.463 118.897 121.5 123.312C111.37 130.812 110 120.812 108.5 113.312C107 105.812 104 95.3124 102 91.7888C100 88.2653 96.5 91.3124 95 96.3124C93.8 100.312 92.8333 112.646 92.5 118.312C92 137.312 90.5 138.312 82.5 138.312C62.8959 138.312 43.6667 125.146 36.5 118.312C35.8333 117.646 34.5 116.212 34.5 115.812C34.5 115.412 38.1667 113.979 40 113.312C40.5074 112.979 42.4177 113.212 46 116.812C49.5824 120.412 54.4927 121.646 56.5 121.812C60.5 121.812 69.3001 120.612 72.5002 115.812C76.5004 109.812 76 107.312 75.5 103.812C75.1251 101.188 70.6221 95.4176 68 92.3643C67.8243 92.1597 67.657 91.9673 67.5 91.7888C67.1513 91.9671 66.8048 92.1419 66.4612 92.3123C66.6446 92.5292 66.8242 92.745 67 92.9593C69.7914 96.3629 71.6248 99.4157 72.5002 101.312C73.513 103.193 74.5007 107.913 71.6031 113.312C71.163 114.133 70.6332 114.968 70.0002 115.812C65.2002 122.212 55.6669 121.146 51.5002 119.812C50.2664 118.915 47.9758 117.187 46 115.544C45.04 114.745 44.1542 113.966 43.5002 113.312C41.0002 110.812 36.5 113.312 33 114.812C30.2 116.012 31.5 117.646 32.5 118.312C36.6666 121.979 46.9 130.112 54.5 133.312C64 137.312 70.5 138.312 82.5 139.812C92.1 141.012 94.1666 131.979 94 127.312C94.1666 121.479 94.9 107.412 96.5 97.8124C98.1 88.2124 100.833 92.8124 102 96.3124C102.667 97.4791 104.5 103.512 106.5 118.312C108.5 133.112 117.667 129.812 122 126.312C125.588 123.291 131.432 117.051 136.334 108.79Z" fill="black"/>
<path fill-rule="evenodd" clip-rule="evenodd" d="M51.5002 119.812C55.6669 121.146 65.2002 122.212 70.0002 115.812C70.6332 114.968 71.163 114.133 71.6031 113.312L72 110.812C72.3333 108.979 71.9 104.612 67.5 101.812C63.1 99.0124 58 99.9791 56 100.812C55.1667 100.979 52.5 102.212 48.5 105.812C44.5 109.412 45.1667 113.8 46 115.544C47.9758 117.187 50.2664 118.915 51.5002 119.812ZM68.5 112.312C66.0175 118.312 59.1323 120.146 56 120.312C50.5145 120.312 48.7144 116.312 48.5 114.312C47.8333 112.812 47.5001 108.812 51.5002 104.812C55.5004 100.812 60.5002 101.146 62.5 101.812C65.5344 102.812 70.9825 106.312 68.5 112.312Z" fill="black"/>
<path d="M58.5 95.3124C53.517 96.0243 29.688 110.25 14.6344 119.6C22.8557 115.013 34.6285 110.163 41.5 105.312C48.3 100.512 61.3333 95.077 67 92.9593C66.8242 92.745 66.6446 92.5292 66.4612 92.3123C63.3806 93.8404 60.5378 95.0213 58.5 95.3124Z" fill="black"/>
<path d="M127 56.3125C127 66.3125 130.333 89.4791 132 99.8125C132.434 101.909 133.451 104.821 135.149 107.283C135.448 106.773 135.727 106.281 135.984 105.812C131.971 98.6124 129.656 75.4791 129 64.8124C128.416 55.3124 127.659 44.8124 134 54.8124C144.4 71.2125 140.667 93.6458 137.5 102.812C137.132 103.628 136.622 104.65 135.984 105.812C135.727 106.281 135.448 106.773 135.149 107.283C135.513 107.81 135.907 108.317 136.334 108.79C136.526 108.467 136.716 108.141 136.905 107.812C140.408 101.7 143.348 94.5467 144.5 86.8124C147.3 68.0124 138.667 53.9791 134 49.3125C131.667 47.4791 127 46.3125 127 56.3125Z" fill="black"/>
<path d="M145.5 111.812C153.9 109.812 161.667 105.646 164.5 103.812C170.274 100.007 181.092 91.8396 186.992 84.243C186.462 84.1659 185.965 84.0795 185.5 83.9845C182.5 86.9272 175 93.9124 169 98.3124C161.5 103.812 157 105.812 148 109.312C140.8 112.112 137.603 109.479 136.905 107.812C136.716 108.141 136.526 108.467 136.334 108.79C138.511 111.204 141.524 112.759 145.5 111.812Z" fill="black"/>
<path d="M190.5 78.3125C193.7 69.5125 185.5 71.3124 184 73.3125C181 76.8124 180 82.8609 185.5 83.9845C185.802 83.6356 186.127 83.2402 186.459 82.8124C183.226 82.4124 182.806 79.6458 183 78.3125C183.333 76.3125 184.9 72.6124 188.5 73.8124C191.666 74.8676 188.878 79.6968 186.459 82.8124C186.127 83.2402 185.802 83.6356 185.5 83.9845C185.965 84.0795 186.462 84.1659 186.992 84.243C187.234 83.9317 187.468 83.6214 187.692 83.3124C188.947 81.5856 189.923 79.8992 190.5 78.3125Z" fill="black"/>
<path d="M187.5 84.3125C199.9 85.9125 234.667 76.9792 250.5 72.3125C249 72.3125 223 78.3125 208.5 81.3124C196.9 83.7124 189.795 83.6458 187.692 83.3124C187.468 83.6214 187.234 83.9317 186.992 84.243C187.158 84.2671 187.327 84.2902 187.5 84.3125Z" fill="black"/>
<path d="M95.5001 36.3124C95.6668 38.1458 94.5001 42.7124 88.5001 46.3124C87.1621 47.1153 85.7162 47.701 84.2403 48.1171C84.2393 48.2242 84.2388 48.3325 84.2389 48.4421C88.4751 47.414 93.0553 45.0693 96 40.3124C102.5 29.8124 91.5003 28.3124 88.5001 31.8124C85.5 35.3124 84.5 34.3125 83 41.3124C82.5209 43.5483 82.5041 46.0711 82.7204 48.4862C83.2285 48.3817 83.7362 48.2593 84.2403 48.1171C84.2535 46.7103 84.356 45.533 84.5001 44.8124C85.0001 42.3124 83.5001 40.3124 90.0001 34.3124C95.2001 29.5124 95.8335 33.6458 95.5001 36.3124Z" fill="black"/>
<path d="M121 48.3124C119.333 50.9791 114.4 57.2124 108 60.8124C114 57.6458 126.1 48.2124 126.5 35.8124C126.9 23.4124 112.333 11.6458 105 7.31244C101.667 4.64578 90.6002 -0.287558 73.0001 1.31244C90.5001 0.312444 95.5001 3.31244 103.5 7.31244C111.5 11.3124 116.5 17.3124 122 28.3124C126.4 37.1124 123.167 45.3124 121 48.3124Z" fill="black"/>
<path d="M58 54.1226C58 54.8225 57.9418 55.5438 57.8347 56.2783C61.1392 54.6988 66.5665 51.6031 70.058 47.9901C69.368 47.7163 68.5036 47.3043 67.5268 46.7335C65.2182 49.3075 62.0856 51.9621 58 54.1226Z" fill="black"/>
<path d="M69.5001 22.8124C75.1001 26.0124 73.8335 34.8124 72.5001 38.8124C71.8789 40.6761 70.2953 43.6469 67.5268 46.7335C68.5036 47.3043 69.368 47.7163 70.058 47.9901C70.588 47.4416 71.0734 46.8813 71.5 46.3124C76 40.3124 77.0003 28.8124 72.5001 24.3124C68.9 20.7124 65.3333 20.8124 64 21.3124C62.3333 21.4791 58.7 23.0124 57.5 27.8124C56.3 32.6124 57 35.8124 57.5 36.8124C57.9693 37.9189 59.5096 40.2611 62.4867 42.9338C61.6594 42.1567 60.8234 41.2853 60.0001 40.3124C55.6001 35.1124 57.1668 29.4791 58.5001 27.3124C59.8335 24.4791 63.9001 19.6124 69.5001 22.8124Z" fill="black"/>
<path d="M36.5001 35.8124C39.1668 34.6458 46.1001 34.0124 52.5001 40.8124C56.0622 44.5972 57.0015 49.8999 56.8181 54.7204C57.2206 54.5259 57.6146 54.3264 58 54.1226C58 50.3525 56 41.4124 48 35.8124C40 30.2124 33 32.8124 30.5 34.8124C29.3335 35.6458 26.6004 38.0124 25.0002 40.8124C23.4 43.6124 23.6667 47.6458 24 49.3124C24.5 50.6458 26.3 53.8124 29.5 55.8124C33.5 58.3124 39.8375 60.8124 56.6687 56.8124C56.7397 56.1298 56.791 55.4303 56.8181 54.7204C55.6222 55.2984 54.3505 55.8333 53.0001 56.3124C40.6001 60.7124 33.1668 57.8124 31.0001 55.8124C28.6668 54.4791 24.6001 50.4124 27.0001 44.8124C29.4001 39.2124 34.3335 36.4791 36.5001 35.8124Z" fill="black"/>
<path d="M92.5001 63.8124C91.3335 63.6458 88.5001 62.5124 86.5001 59.3124C84.7755 56.553 84.2406 51.8898 84.2389 48.4421C83.7351 48.5643 83.2362 48.668 82.7455 48.7548C83.0879 52.2865 83.9142 55.5547 84.5001 57.3124C85.9787 60.3982 90.7487 66.0441 98 63.9411C95.5945 64.1825 93.6292 64.0383 92.5001 63.8124Z" fill="black"/>
<path d="M25.0002 73.3124C17.0002 74.9124 17.0002 81.6458 18.0002 84.8124C20.0002 87.948 26.5001 92.6379 36.5001 86.3124C40.5037 83.78 43.9463 80.502 46.7637 77.1799C46.3467 76.9506 45.9254 76.7215 45.5 76.4928C44 78.4327 39.9 82.9124 35.5 85.3124C30 88.3124 23 88.8124 19.5 84.8124C16.7 81.6124 19 78.1458 20.5 76.8124C21.3333 75.8124 24 73.7124 28 73.3124C32.4838 72.8641 36.8155 72.3037 43.2072 75.3079C35.4022 71.4127 32.7609 71.7603 25.0002 73.3124Z" fill="black"/>
<path d="M45.5 76.4928C45.9092 76.7104 46.3315 76.9377 46.7679 77.1749C48.0106 75.7092 49.1317 74.235 50.1255 72.8124C52.5045 69.4074 54.1545 66.2987 55.0001 64.3124C55.4724 63.0243 55.9602 61.2916 56.3148 59.3124C54.9666 66.1124 48.5432 73.5994 45.5 76.4928Z" fill="black"/>
<path d="M35.5001 12.3124C42.1668 8.97911 59.0001 2.11244 73.0001 1.31244C42.5001 2.81245 28 17.0159 21.5 21.3124C15 25.609 7.00014 36.8124 4 44.8124C1.5999 51.2124 1.33328 63.4791 1.5 68.8124C1.83333 74.6458 3.2 87.5228 6 92.3643C8.8 97.2058 17.8333 105.347 22 108.812C20.1667 106.646 15.8 101.512 13 98.3124C10.2 95.1124 7.83342 88.9791 7.00013 86.3124C4.33347 79.4791 0.400134 61.6124 6.00013 44.8124C11.6001 28.0124 28.0001 16.1458 35.5001 12.3124Z" fill="black"/>
<path d="M57.8347 56.2783C57.9418 55.5438 58 54.8225 58 54.1226C57.6146 54.3264 57.2206 54.5259 56.8181 54.7204C56.791 55.4303 56.7397 56.1298 56.6687 56.8124C57.0161 56.6611 57.4077 56.4824 57.8347 56.2783Z" fill="black"/>
<path d="M56.3148 59.3124C55.9602 61.2916 55.4724 63.0243 55.0001 64.3124C54.1545 66.2987 52.5045 69.4074 50.1255 72.8124C52.474 69.7168 56.9238 62.5208 57.8347 56.2783C57.4077 56.4824 57.0161 56.6611 56.6687 56.8124C56.5789 57.6771 56.4577 58.5148 56.3148 59.3124Z" fill="black"/>
<path d="M122 62.8124C121.926 63.0356 121.821 63.2394 121.688 63.4257C117.277 71.5047 108.5 75.8124 101 74.8124C99.3652 74.5945 93.1371 77.9791 90.2056 79.8124C90.3872 80.1587 90.5 80.5002 90.5 80.8124C94 78.8124 98 76.3124 100 76.3124C119.007 76.3124 123 59.8124 122 62.8124Z" fill="black"/>
<path d="M98.5 72.8124C100.5 70.6458 105.5 66.2124 109.5 65.8124C110.775 65.685 112.147 65.6225 113.5 65.5505C110.667 65.1378 104.4 65.0124 102 67.8124C99.6 70.6124 98.6667 72.3124 98.5 72.8124Z" fill="black"/>
<path d="M82 79.8124C83.5 78.9791 86.8 77.3124 88 77.3124C87.3333 76.8124 85.3 76.3124 82.5 78.3124C81.6334 78.9314 81.3627 79.5343 81.463 80.0914C81.6475 79.9957 81.8267 79.9026 82 79.8124Z" fill="black"/>
<path d="M84.8072 82.6816C83.7642 81.962 82 80.5638 82 79.8124C81.8267 79.9026 81.6475 79.9957 81.463 80.0914C81.6679 81.2294 83.4208 82.1768 84.8072 82.6816Z" fill="black"/>
<path d="M22 108.812C32.4208 103.646 54.3098 92.9124 58.5 91.3124C59.6246 90.883 61.3998 90.0838 63.5131 89.0831C55.3421 92.3262 35.6 100.812 22 108.812Z" fill="black"/>
<path d="M108 60.8124C114.4 57.2124 119.333 50.9791 121 48.3124C123.167 45.3124 126.4 37.1124 122 28.3124C116.5 17.3124 111.5 11.3124 103.5 7.31244C95.5001 3.31244 90.5001 0.312444 73.0001 1.31244M108 60.8124C104.491 62.7866 100.921 63.6481 98 63.9411M108 60.8124C114 57.6458 126.1 48.2124 126.5 35.8124C126.9 23.4124 112.333 11.6458 105 7.31244C101.667 4.64578 90.6002 -0.287558 73.0001 1.31244M73.0001 1.31244C59.0001 2.11244 42.1668 8.97911 35.5001 12.3124C28.0001 16.1458 11.6001 28.0124 6.00013 44.8124C0.400134 61.6124 4.33347 79.4791 7.00013 86.3124C7.83342 88.9791 10.2 95.1124 13 98.3124C15.8 101.512 20.1667 106.646 22 108.812M73.0001 1.31244C42.5001 2.81245 28 17.0159 21.5 21.3124C15 25.609 7.00014 36.8124 4 44.8124C1.5999 51.2124 1.33328 63.4791 1.5 68.8124C1.83333 74.6458 3.2 87.5228 6 92.3643C8.8 97.2058 17.8333 105.347 22 108.812M22 108.812C32.4208 103.646 54.3098 92.9124 58.5 91.3124C59.6246 90.883 61.3998 90.0838 63.5131 89.0831M22 108.812C35.6 100.812 55.3421 92.3262 63.5131 89.0831M82 79.8124C83.5 78.9791 86.8 77.3124 88 77.3124M82 79.8124C81.8267 79.9026 81.6475 79.9957 81.463 80.0914M82 79.8124C82 80.5638 83.7642 81.962 84.8072 82.6816M88 77.3124C89.2 77.3124 95.5 74.3124 98.5 72.8124M88 77.3124C88.6165 77.8057 89.6892 78.828 90.2056 79.8124M88 77.3124C87.3333 76.8124 85.3 76.3124 82.5 78.3124C81.6334 78.9314 81.3627 79.5343 81.463 80.0914M98.5 72.8124C100.5 70.6458 105.5 66.2124 109.5 65.8124C110.775 65.685 112.147 65.6225 113.5 65.5505M98.5 72.8124C98.6667 72.3124 99.6 70.6124 102 67.8124C104.4 65.0124 110.667 65.1378 113.5 65.5505M122 62.8124C123 59.8124 119.007 76.3124 100 76.3124C98 76.3124 94 78.8124 90.5 80.8124M122 62.8124C121.926 63.0356 121.821 63.2394 121.688 63.4257M122 62.8124C121.903 63.0195 121.799 63.224 121.688 63.4257M90.5 80.8124C90.5 80.5002 90.3872 80.1587 90.2056 79.8124M90.5 80.8124C90.416 80.8797 90.3174 80.9537 90.2056 81.0324M85 82.8124C82.9708 82.8124 74.7646 88.0742 67.5 91.7888M85 82.8124C79.8333 85.6804 69.2 91.6058 68 92.3643M85 82.8124C85.0603 82.8124 85.1204 82.8116 85.1805 82.81M85 82.8124C84.9392 82.7719 84.8747 82.7282 84.8072 82.6816M46 115.544C45.04 114.745 44.1542 113.966 43.5002 113.312C41.0002 110.812 36.5 113.312 33 114.812C30.2 116.012 31.5 117.646 32.5 118.312C36.6666 121.979 46.9 130.112 54.5 133.312C64 137.312 70.5 138.312 82.5 139.812C92.1 141.012 94.1666 131.979 94 127.312C94.1666 121.479 94.9 107.412 96.5 97.8124C98.1 88.2124 100.833 92.8124 102 96.3124C102.667 97.4791 104.5 103.512 106.5 118.312C108.5 133.112 117.667 129.812 122 126.312C125.588 123.291 131.432 117.051 136.334 108.79M46 115.544C47.9758 117.187 50.2664 118.915 51.5002 119.812C55.6669 121.146 65.2002 122.212 70.0002 115.812C70.6332 114.968 71.163 114.133 71.6031 113.312M46 115.544C45.1667 113.8 44.5 109.412 48.5 105.812C52.5 102.212 55.1667 100.979 56 100.812C58 99.9791 63.1 99.0124 67.5 101.812C71.9 104.612 72.3333 108.979 72 110.812L71.6031 113.312M71.6031 113.312C74.5007 107.913 73.513 103.193 72.5002 101.312C71.6248 99.4157 69.7914 96.3629 67 92.9593M67.5 91.7888C67.657 91.9673 67.8243 92.1597 68 92.3643M67.5 91.7888C67.1513 91.9671 66.8048 92.1419 66.4612 92.3123M135.984 105.812C136.622 104.65 137.132 103.628 137.5 102.812C140.667 93.6458 144.4 71.2125 134 54.8124C127.659 44.8124 128.416 55.3124 129 64.8124C129.656 75.4791 131.971 98.6124 135.984 105.812ZM135.984 105.812C135.727 106.281 135.448 106.773 135.149 107.283M136.905 107.812C140.408 101.7 143.348 94.5467 144.5 86.8124C147.3 68.0124 138.667 53.9791 134 49.3125C131.667 47.4791 127 46.3125 127 56.3125C127 66.3125 130.333 89.4791 132 99.8125C132.434 101.909 133.451 104.821 135.149 107.283M136.905 107.812C137.603 109.479 140.8 112.112 148 109.312C157 105.812 161.5 103.812 169 98.3124C175 93.9124 182.5 86.9272 185.5 83.9845M136.905 107.812C136.716 108.141 136.526 108.467 136.334 108.79M185.5 83.9845C180 82.8609 181 76.8124 184 73.3125C185.5 71.3124 193.7 69.5125 190.5 78.3125C189.923 79.8992 188.947 81.5856 187.692 83.3124M185.5 83.9845C185.802 83.6356 186.127 83.2402 186.459 82.8124M185.5 83.9845C185.965 84.0795 186.462 84.1659 186.992 84.243M186.459 82.8124C188.878 79.6968 191.666 74.8676 188.5 73.8124C184.9 72.6124 183.333 76.3125 183 78.3125C182.806 79.6458 183.226 82.4124 186.459 82.8124ZM187.692 83.3124C189.795 83.6458 196.9 83.7124 208.5 81.3124C223 78.3125 249 72.3125 250.5 72.3125C234.667 76.9792 199.9 85.9125 187.5 84.3125C187.327 84.2902 187.158 84.2671 186.992 84.243M187.692 83.3124C187.468 83.6214 187.234 83.9317 186.992 84.243M68 92.3643C70.6221 95.4176 75.1251 101.188 75.5 103.812C76 107.312 76.5004 109.812 72.5002 115.812C69.3001 120.612 60.5 121.812 56.5 121.812C54.4927 121.646 49.5824 120.412 46 116.812C42.4177 113.212 40.5074 112.979 40 113.312C38.1667 113.979 34.5 115.412 34.5 115.812C34.5 116.212 35.8333 117.646 36.5 118.312C43.6667 125.146 62.8959 138.312 82.5 138.312C90.5 138.312 92 137.312 92.5 118.312C92.8333 112.646 93.8 100.312 95 96.3124C96.5 91.3124 100 88.2653 102 91.7888C104 95.3124 107 105.812 108.5 113.312C110 120.812 111.37 130.812 121.5 123.312C127.463 118.897 132.255 112.226 135.149 107.283M67 92.9593C61.3333 95.077 48.3 100.512 41.5 105.312C34.6285 110.163 22.8557 115.013 14.6344 119.6M67 92.9593C66.8242 92.745 66.6446 92.5292 66.4612 92.3123M45.5 76.4928C44 78.4327 39.9 82.9124 35.5 85.3124C30 88.3124 23 88.8124 19.5 84.8124C16.7 81.6124 19 78.1458 20.5 76.8124C21.3333 75.8124 24 73.7124 28 73.3124C32.4838 72.8641 36.8155 72.3037 43.2072 75.3079M45.5 76.4928C48.5432 73.5994 54.9666 66.1124 56.3148 59.3124M45.5 76.4928C45.9254 76.7215 46.3467 76.9506 46.7637 77.1799M45.5 76.4928C44.7062 76.0469 43.943 75.6538 43.2072 75.3079M45.5 76.4928C44.6867 76.0604 43.9251 75.6662 43.2072 75.3079M45.5 76.4928C45.9092 76.7104 46.3315 76.9377 46.7679 77.1749M64.5 88.6129C62.1156 86.7246 55.3648 81.9108 46.7637 77.1799M64.5 88.6129C69.9509 86.0016 77.1708 82.3186 81.463 80.0914M64.5 88.6129C64.1639 88.7739 63.8346 88.9308 63.5131 89.0831M56.3148 59.3124C55.9602 61.2916 55.4724 63.0243 55.0001 64.3124C54.1545 66.2987 52.5045 69.4074 50.1255 72.8124M56.3148 59.3124C56.4577 58.5148 56.5789 57.6771 56.6687 56.8124M50.1255 72.8124C52.474 69.7168 56.9238 62.5208 57.8347 56.2783M50.1255 72.8124C49.1317 74.235 48.0106 75.7092 46.7679 77.1749M58 54.1226C58 50.3525 56 41.4124 48 35.8124C40 30.2124 33 32.8124 30.5 34.8124C29.3335 35.6458 26.6004 38.0124 25.0002 40.8124C23.4 43.6124 23.6667 47.6458 24 49.3124C24.5 50.6458 26.3 53.8124 29.5 55.8124C33.5 58.3124 39.8375 60.8124 56.6687 56.8124M58 54.1226C62.0856 51.9621 65.2182 49.3075 67.5268 46.7335M58 54.1226C58 54.8225 57.9418 55.5438 57.8347 56.2783M58 54.1226C57.6146 54.3264 57.2206 54.5259 56.8181 54.7204M56.6687 56.8124C57.0161 56.6611 57.4077 56.4824 57.8347 56.2783M56.6687 56.8124C56.7397 56.1298 56.791 55.4303 56.8181 54.7204M67.5268 46.7335C70.2953 43.6469 71.8789 40.6761 72.5001 38.8124C73.8335 34.8124 75.1001 26.0124 69.5001 22.8124C63.9001 19.6124 59.8335 24.4791 58.5001 27.3124C57.1668 29.4791 55.6001 35.1124 60.0001 40.3124C60.8234 41.2853 61.6594 42.1567 62.4867 42.9338M67.5268 46.7335C68.5036 47.3043 69.368 47.7163 70.058 47.9901M67.5268 46.7335C65.5208 45.4557 63.8526 44.16 62.4867 42.9338M67.5268 46.7335C66.0353 45.8619 64.2817 44.6198 62.4867 42.9338M76 48.9796C73.9391 48.8898 72.1713 48.6052 71.0001 48.3124C70.7414 48.2419 70.4243 48.1355 70.058 47.9901M76 48.9796C78.0498 49.069 80.3895 48.9657 82.7204 48.4862M76 48.9796C77.6487 49.2035 80.0758 49.2274 82.7455 48.7548M98 63.9411C95.5945 64.1825 93.6292 64.0383 92.5001 63.8124C91.3335 63.6458 88.5001 62.5124 86.5001 59.3124C84.7755 56.553 84.2406 51.8898 84.2389 48.4421M98 63.9411C90.7487 66.0441 85.9787 60.3982 84.5001 57.3124C83.9142 55.5547 83.0879 52.2865 82.7455 48.7548M136.334 108.79C135.907 108.317 135.513 107.81 135.149 107.283M136.334 108.79C138.511 111.204 141.524 112.759 145.5 111.812C153.9 109.812 161.667 105.646 164.5 103.812C170.274 100.007 181.092 91.8396 186.992 84.243M66.4612 92.3123C63.3806 93.8404 60.5378 95.0213 58.5 95.3124C53.517 96.0243 29.688 110.25 14.6344 119.6M66.4612 92.3123C65.5685 91.2564 64.5858 90.1722 63.5131 89.0831M14.6344 119.6C12.6859 120.687 10.9369 121.759 9.5 122.812C11.0421 121.839 12.771 120.757 14.6344 119.6ZM84.2403 48.1171C85.7162 47.701 87.1621 47.1153 88.5001 46.3124C94.5001 42.7124 95.6668 38.1458 95.5001 36.3124C95.8335 33.6458 95.2001 29.5124 90.0001 34.3124C83.5001 40.3124 85.0001 42.3124 84.5001 44.8124C84.356 45.533 84.2535 46.7103 84.2403 48.1171ZM84.2403 48.1171C84.2393 48.2242 84.2388 48.3325 84.2389 48.4421M84.2403 48.1171C83.7362 48.2593 83.2285 48.3817 82.7204 48.4862M84.2389 48.4421C88.4751 47.414 93.0553 45.0693 96 40.3124C102.5 29.8124 91.5003 28.3124 88.5001 31.8124C85.5 35.3124 84.5 34.3125 83 41.3124C82.5209 43.5483 82.5041 46.0711 82.7204 48.4862M84.2389 48.4421C83.7351 48.5643 83.2362 48.668 82.7455 48.7548M82.7204 48.4862C82.7285 48.5759 82.7368 48.6654 82.7455 48.7548M57.8347 56.2783C61.1392 54.6988 66.5665 51.6031 70.058 47.9901M70.058 47.9901C70.588 47.4416 71.0734 46.8813 71.5 46.3124C76 40.3124 77.0003 28.8124 72.5001 24.3124C68.9 20.7124 65.3333 20.8124 64 21.3124C62.3333 21.4791 58.7 23.0124 57.5 27.8124C56.3 32.6124 57 35.8124 57.5 36.8124C57.9693 37.9189 59.5096 40.2611 62.4867 42.9338M56.8181 54.7204C57.0015 49.8999 56.0622 44.5972 52.5001 40.8124C46.1001 34.0124 39.1668 34.6458 36.5001 35.8124C34.3335 36.4791 29.4001 39.2124 27.0001 44.8124C24.6001 50.4124 28.6668 54.4791 31.0001 55.8124C33.1668 57.8124 40.6001 60.7124 53.0001 56.3124C54.3505 55.8333 55.6222 55.2984 56.8181 54.7204ZM46.7637 77.1799C43.9463 80.502 40.5037 83.78 36.5001 86.3124C26.5001 92.6379 20.0002 87.948 18.0002 84.8124C17.0002 81.6458 17.0002 74.9124 25.0002 73.3124C32.7609 71.7603 35.4022 71.4127 43.2072 75.3079M46.7637 77.1799C46.7651 77.1783 46.7665 77.1766 46.7679 77.1749M46.7679 77.1749C48.185 77.9454 49.7508 78.8211 51.5002 79.8124C56.3067 82.5361 60.3109 85.8319 63.5131 89.0831M90.2056 79.8124C93.1371 77.9791 99.3652 74.5945 101 74.8124C108.5 75.8124 117.277 71.5047 121.688 63.4257M121.688 63.4257C120.495 65.1053 117.061 65.361 113.5 65.5505M90.2056 81.0324C89.517 79.9204 87.912 77.7197 87 77.8124M90.2056 81.0324C89.2361 81.7148 87.2717 82.7525 85.1805 82.81M85.1805 82.81C85.0602 82.7711 84.9352 82.7282 84.8072 82.6816M81.463 80.0914C81.6679 81.2294 83.4208 82.1768 84.8072 82.6816M56 120.312C59.1323 120.146 66.0175 118.312 68.5 112.312C70.9825 106.312 65.5344 102.812 62.5 101.812C60.5002 101.146 55.5004 100.812 51.5002 104.812C47.5001 108.812 47.8333 112.812 48.5 114.312C48.7144 116.312 50.5145 120.312 56 120.312Z" stroke="black"/>
</svg>
