<svg width="376" height="221" viewBox="0 0 376 221" fill="none" xmlns="http://www.w3.org/2000/svg">
<path d="M103 144.109C106.206 139.53 121.156 120.269 136.326 113.989C133.464 114.54 130.986 114.964 129.5 115.109C124 115.648 110 131.109 103 138.109C97.5244 143.585 93.3867 165.441 91.8965 176.381C92.2156 174.306 92.9839 171.283 94 166.609C96.5 155.109 99.5 149.109 103 144.109Z" fill="black"/>
<path d="M103 144.109C106.206 139.53 121.156 120.269 136.326 113.989C133.464 114.54 130.986 114.964 129.5 115.109C124 115.648 110 131.109 103 138.109C97.5244 143.585 93.3867 165.441 91.8965 176.381C92.2156 174.306 92.9839 171.283 94 166.609C96.5 155.109 99.5 149.109 103 144.109Z" fill="black" fill-opacity="0.2"/>
<path d="M86.5 204.609C88.9 187.409 98.5 198.776 103 206.609C103 206.609 103.702 202.012 98.5 196.609C85.5 183.109 83.5 201.937 84 212.592C84.9825 211.661 85.8563 209.222 86.5 204.609Z" fill="black"/>
<path d="M86.5 204.609C88.9 187.409 98.5 198.776 103 206.609C103 206.609 103.702 202.012 98.5 196.609C85.5 183.109 83.5 201.937 84 212.592C84.9825 211.661 85.8563 209.222 86.5 204.609Z" fill="black" fill-opacity="0.2"/>
<path d="M113.401 217.013C115.142 216.944 116.845 216.873 118.5 216.802C123.747 216.573 128.514 216.334 132.5 216.109C133.461 215.056 134.838 213.616 136.494 211.973C137.194 209.943 137.786 207.052 138.135 203.042C137.422 208.801 132.376 210.585 130 210.109C127.5 209.609 121.5 210.109 116.5 210.609C111.5 211.109 108.833 210.609 108.833 206.609V194.609C108.2 198.934 107.477 202.427 107 204.609C105.291 208.536 104.969 216.171 113.401 217.013Z" fill="black"/>
<path d="M113.401 217.013C115.142 216.944 116.845 216.873 118.5 216.802C123.747 216.573 128.514 216.334 132.5 216.109C133.461 215.056 134.838 213.616 136.494 211.973C137.194 209.943 137.786 207.052 138.135 203.042C137.422 208.801 132.376 210.585 130 210.109C127.5 209.609 121.5 210.109 116.5 210.609C111.5 211.109 108.833 210.609 108.833 206.609V194.609C108.2 198.934 107.477 202.427 107 204.609C105.291 208.536 104.969 216.171 113.401 217.013Z" fill="black" fill-opacity="0.2"/>
<path d="M138.406 210.109C142.602 206.087 147.996 201.362 153 198.109C160.386 193.308 166.135 190.144 177.5 189.422C162 189.171 161.5 192.609 153 195.609C146.2 198.009 140.437 206.276 138.406 210.109Z" fill="black"/>
<path d="M138.406 210.109C142.602 206.087 147.996 201.362 153 198.109C160.386 193.308 166.135 190.144 177.5 189.422C162 189.171 161.5 192.609 153 195.609C146.2 198.009 140.437 206.276 138.406 210.109Z" fill="black" fill-opacity="0.2"/>
<path d="M243.6 112.609C239.228 108.807 229.976 103.65 199.873 105.725C199.208 105.773 198.538 105.822 197.864 105.872C196.929 105.944 195.974 106.023 195 106.109C191.49 106.419 188.092 106.693 184.82 106.936C173.391 107.948 161.91 109.175 153 110.425C149.349 111.266 143.069 112.658 137.72 113.717C195.096 104.603 233.813 110.464 246 114.534C245.128 113.892 244.33 113.244 243.6 112.609Z" fill="black"/>
<path d="M243.6 112.609C239.228 108.807 229.976 103.65 199.873 105.725C199.208 105.773 198.538 105.822 197.864 105.872C196.929 105.944 195.974 106.023 195 106.109C191.49 106.419 188.092 106.693 184.82 106.936C173.391 107.948 161.91 109.175 153 110.425C149.349 111.266 143.069 112.658 137.72 113.717C195.096 104.603 233.813 110.464 246 114.534C245.128 113.892 244.33 113.244 243.6 112.609Z" fill="black" fill-opacity="0.2"/>
<path d="M237 211.308C238.37 211.495 239.875 211.609 241.5 211.609C244.721 211.609 247.153 211.681 248.849 211.308C251.628 210.696 252.432 208.888 251.5 203.609C250.833 199.831 250.759 194.77 250.883 189.609C251.037 183.159 251.5 176.554 251.5 172.109C251.5 171.313 251.564 170.473 251.669 169.609C250.71 175.109 248 191.609 249.5 201.109C250.7 208.709 238.135 209.609 231.702 209.109C232.572 209.723 233.55 210.271 234.648 210.743C235.376 210.996 236.159 211.187 237 211.308Z" fill="black"/>
<path d="M237 211.308C238.37 211.495 239.875 211.609 241.5 211.609C244.721 211.609 247.153 211.681 248.849 211.308C251.628 210.696 252.432 208.888 251.5 203.609C250.833 199.831 250.759 194.77 250.883 189.609C251.037 183.159 251.5 176.554 251.5 172.109C251.5 171.313 251.564 170.473 251.669 169.609C250.71 175.109 248 191.609 249.5 201.109C250.7 208.709 238.135 209.609 231.702 209.109C232.572 209.723 233.55 210.271 234.648 210.743C235.376 210.996 236.159 211.187 237 211.308Z" fill="black" fill-opacity="0.2"/>
<path d="M257 211.609C290.38 205.866 308.006 206.672 314.284 208.103C288.871 200.913 263.954 207.637 254.5 212.003C255.311 211.888 256.144 211.756 257 211.609Z" fill="black"/>
<path d="M257 211.609C290.38 205.866 308.006 206.672 314.284 208.103C288.871 200.913 263.954 207.637 254.5 212.003C255.311 211.888 256.144 211.756 257 211.609Z" fill="black" fill-opacity="0.2"/>
<path d="M316 195.109C323.411 198.437 326.385 201.059 326.777 203.078C326.634 198.676 319 194.609 311 193.446C312.455 193.711 313.518 193.995 316 195.109Z" fill="black"/>
<path d="M316 195.109C323.411 198.437 326.385 201.059 326.777 203.078C326.634 198.676 319 194.609 311 193.446C312.455 193.711 313.518 193.995 316 195.109Z" fill="black" fill-opacity="0.2"/>
<path d="M29.3161 208.609C28.9382 204.864 33.0983 200.283 38 195.109C39.9549 193.046 41.2729 192.445 42 192.815C40 191.02 38 192.109 33 195.109C29 197.509 28.8774 205.109 29.3161 208.609Z" fill="black"/>
<path d="M29.3161 208.609C28.9382 204.864 33.0983 200.283 38 195.109C39.9549 193.046 41.2729 192.445 42 192.815C40 191.02 38 192.109 33 195.109C29 197.509 28.8774 205.109 29.3161 208.609Z" fill="black" fill-opacity="0.2"/>
<path d="M262.5 48.1093C271.5 50.1093 273.5 49.1092 272.5 63.6092C271.774 74.1412 255.748 82.8267 256.802 84.1093C268.868 77.4426 288.5 60.6093 270.5 46.6093C265.103 42.4115 253.784 46.4521 251.031 51.3293C252.112 49.4666 255.654 46.5879 262.5 48.1093Z" fill="black"/>
<path d="M262.5 48.1093C271.5 50.1093 273.5 49.1092 272.5 63.6092C271.774 74.1412 255.748 82.8267 256.802 84.1093C268.868 77.4426 288.5 60.6093 270.5 46.6093C265.103 42.4115 253.784 46.4521 251.031 51.3293C252.112 49.4666 255.654 46.5879 262.5 48.1093Z" fill="black" fill-opacity="0.2"/>
<path d="M291.5 130.109C287.58 133.225 283.509 134.996 279.5 135.806C293.2 133.074 319.14 122.209 313.3 100.609C314.827 111.546 309.008 116.193 291.5 130.109Z" fill="black"/>
<path d="M291.5 130.109C287.58 133.225 283.509 134.996 279.5 135.806C293.2 133.074 319.14 122.209 313.3 100.609C314.827 111.546 309.008 116.193 291.5 130.109Z" fill="black" fill-opacity="0.2"/>
<path d="M140.5 135.109C140.5 151.109 145.5 163.609 144 166.609C142.984 168.642 140.24 171.297 138.42 172.872C140.938 171.184 147.839 167.545 147 164.609C146 161.109 140.5 142.609 140.5 135.109Z" fill="black"/>
<path d="M140.5 135.109C140.5 151.109 145.5 163.609 144 166.609C142.984 168.642 140.24 171.297 138.42 172.872C140.938 171.184 147.839 167.545 147 164.609C146 161.109 140.5 142.609 140.5 135.109Z" fill="black" fill-opacity="0.2"/>
<path d="M148.5 81.1093C150.833 80.2759 156.8 77.6093 162 73.6093C167.2 69.6093 171.833 65.2759 173.5 63.6092C174.333 60.9426 174.6 57.0093 169 62.6093C162 69.6093 162 70.6093 158.5 73.6093C155.7 76.0093 150.667 79.6093 148.5 81.1093Z" fill="black"/>
<path d="M148.5 81.1093C150.833 80.2759 156.8 77.6093 162 73.6093C167.2 69.6093 171.833 65.2759 173.5 63.6092C174.333 60.9426 174.6 57.0093 169 62.6093C162 69.6093 162 70.6093 158.5 73.6093C155.7 76.0093 150.667 79.6093 148.5 81.1093Z" fill="black" fill-opacity="0.2"/>
<path d="M212 67.1093C207.5 64.2456 204.4 61.7093 204 60.1093C203.5 58.1093 203.5 55.1093 209.5 60.1093C214.3 64.1093 220.833 70.7759 223.5 73.6093C220.833 72.6093 217.5 70.6093 212 67.1093Z" fill="black"/>
<path d="M212 67.1093C207.5 64.2456 204.4 61.7093 204 60.1093C203.5 58.1093 203.5 55.1093 209.5 60.1093C214.3 64.1093 220.833 70.7759 223.5 73.6093C220.833 72.6093 217.5 70.6093 212 67.1093Z" fill="black" fill-opacity="0.2"/>
<path d="M189.5 1.10926C186.979 0.163834 186 5.60926 189.5 7.60926C189.695 7.72052 189.872 7.87666 190.034 8.07329C193.264 3.94129 195.607 3.3994 189.5 1.10926Z" fill="black"/>
<path d="M189.5 1.10926C186.979 0.163834 186 5.60926 189.5 7.60926C189.695 7.72052 189.872 7.87666 190.034 8.07329C193.264 3.94129 195.607 3.3994 189.5 1.10926Z" fill="black" fill-opacity="0.2"/>
<path d="M176 34.6092H142C167.167 35.9426 221.1 38.2093 235.5 36.6093C225.5 35.2759 202.6 33.0093 191 34.6092C188.882 34.9014 187.212 34.8415 185.917 34.4981C182.827 35.2527 178.544 34.7152 176 34.6092Z" fill="black"/>
<path d="M176 34.6092H142C167.167 35.9426 221.1 38.2093 235.5 36.6093C225.5 35.2759 202.6 33.0093 191 34.6092C188.882 34.9014 187.212 34.8415 185.917 34.4981C182.827 35.2527 178.544 34.7152 176 34.6092Z" fill="black" fill-opacity="0.2"/>
<path d="M250.883 61.1093C249.071 62.6802 246.517 77.1043 244.794 88.6322C244.996 89.9587 245.379 90.9147 246 91.3012C248.041 80.8174 252.644 61.201 255.935 59.7221C253.834 59.6626 251.742 60.3637 250.883 61.1093Z" fill="black"/>
<path d="M250.883 61.1093C249.071 62.6802 246.517 77.1043 244.794 88.6322C244.996 89.9587 245.379 90.9147 246 91.3012C248.041 80.8174 252.644 61.201 255.935 59.7221C253.834 59.6626 251.742 60.3637 250.883 61.1093Z" fill="black" fill-opacity="0.2"/>
<path d="M127 88.1092C134.227 82.6891 134.925 82.9813 134.993 63.5527C134.622 61.1329 134.073 59.3519 133.412 58.1093C133.823 77.6093 127.541 87.7047 127 88.1092Z" fill="black"/>
<path d="M127 88.1092C134.227 82.6891 134.925 82.9813 134.993 63.5527C134.622 61.1329 134.073 59.3519 133.412 58.1093C133.823 77.6093 127.541 87.7047 127 88.1092Z" fill="black" fill-opacity="0.2"/>
<path d="M242.828 155.68C242.174 152.751 241.892 146.707 243.6 136.109C245.542 124.054 248.313 124.007 250.021 126.169C246.768 120.873 246.585 122.713 241.5 130.109C236.961 136.711 240.989 150.464 242.828 155.68Z" fill="black"/>
<path d="M242.828 155.68C242.174 152.751 241.892 146.707 243.6 136.109C245.542 124.054 248.313 124.007 250.021 126.169C246.768 120.873 246.585 122.713 241.5 130.109C236.961 136.711 240.989 150.464 242.828 155.68Z" fill="black" fill-opacity="0.2"/>
<path d="M362.831 202.408C357.55 203.007 350.741 204.763 342.5 208.609C336.861 211.241 330.895 211.014 325.5 209.37C329.57 211.291 339.568 213.979 347 209.37C352.715 205.826 357.265 203.138 362.831 202.408Z" fill="black"/>
<path d="M362.831 202.408C357.55 203.007 350.741 204.763 342.5 208.609C336.861 211.241 330.895 211.014 325.5 209.37C329.57 211.291 339.568 213.979 347 209.37C352.715 205.826 357.265 203.138 362.831 202.408Z" fill="black" fill-opacity="0.2"/>
<path d="M115.578 217.08C114.795 217.104 114.07 217.08 113.401 217.013C87.8835 218.021 54.1443 218.6 42 216.109C35.5916 214.795 31.9912 213.102 30.3648 211.085C33 213.609 33.88 224.756 115.578 217.08Z" fill="black"/>
<path d="M115.578 217.08C114.795 217.104 114.07 217.08 113.401 217.013C87.8835 218.021 54.1443 218.6 42 216.109C35.5916 214.795 31.9912 213.102 30.3648 211.085C33 213.609 33.88 224.756 115.578 217.08Z" fill="black" fill-opacity="0.2"/>
<path d="M206.5 80.1093C207.333 81.1093 209.4 82.6093 211 80.6093C212.6 78.6093 210.667 77.4426 209.5 77.1093C208.833 76.9426 207.4 76.7093 207 77.1093C206.5 77.6093 205.5 79.2071 206.5 80.1093Z" fill="black"/>
<path d="M206.5 80.1093C207.333 81.1093 209.4 82.6093 211 80.6093C212.6 78.6093 210.667 77.4426 209.5 77.1093C208.833 76.9426 207.4 76.7093 207 77.1093C206.5 77.6093 205.5 79.2071 206.5 80.1093Z" fill="black" fill-opacity="0.2"/>
<path d="M165 82.1093C165.5 80.6093 166.5 80.1093 168 81.1093C169.177 81.8937 168.5 83.1093 167.5 83.6093C165.5 84.6093 165 82.6093 165 82.1093Z" fill="black"/>
<path d="M165 82.1093C165.5 80.6093 166.5 80.1093 168 81.1093C169.177 81.8937 168.5 83.1093 167.5 83.6093C165.5 84.6093 165 82.6093 165 82.1093Z" fill="black" fill-opacity="0.2"/>
<path d="M1 211.609C5.83333 213.109 18.2 215.209 29 211.609C29.4657 211.454 29.9207 211.279 30.3648 211.085M132.5 216.109C128.514 216.334 123.747 216.573 118.5 216.802M132.5 216.109C133.461 215.056 134.838 213.616 136.494 211.973M132.5 216.109C133.668 216.474 135.251 215.58 136.494 211.973M118.5 216.802C116.845 216.873 115.142 216.944 113.401 217.013M118.5 216.802C117.516 216.897 116.542 216.989 115.578 217.08M118.5 216.802C117.446 216.962 116.474 217.052 115.578 217.08M237 211.308C232.637 210.711 229.642 208.048 228.5 207.287C228.5 205.454 224.5 202.006 219 195.109C211.256 185.399 214 191.109 192 189.609C186.249 189.217 181.523 189.167 177.5 189.422M237 211.308C238.37 211.495 239.875 211.609 241.5 211.609C244.721 211.609 247.153 211.681 248.849 211.308C251.628 210.696 252.432 208.888 251.5 203.609C250.833 199.831 250.759 194.77 250.883 189.609C251.037 183.159 251.5 176.554 251.5 172.109C251.5 171.313 251.564 170.473 251.669 169.609M237 211.308C236.159 211.187 235.376 210.996 234.648 210.743M243.6 157.696C244.535 157.402 245.502 157.043 246.5 156.609C256.856 152.107 252.615 161.795 251.669 169.609M243.6 157.696C235.914 160.111 230.432 158.095 228.5 156.609C227.333 156.943 225.1 160.009 225.5 169.609C225.974 180.979 221.51 206.169 234.648 210.743M243.6 157.696C243.509 157.506 243.217 156.784 242.828 155.68M243.6 157.696C243.344 157.381 243.062 156.731 242.828 155.68M250.883 127.609C256.153 132.101 267.555 138.219 279.5 135.806M250.883 127.609C250.645 127.094 250.353 126.589 250.021 126.169M250.883 127.609C250.572 127.081 250.286 126.601 250.021 126.169M250.883 51.6093C252.922 46.2759 258.754 38.1093 267 38.1093C278.5 38.1093 284.575 41.5975 286.5 54.1092C288.5 67.1093 278.386 71.1093 286.5 79.6092C297 90.6092 300.5 103.109 291.5 112.609C282.5 122.109 278.5 122.109 267 121.609C257.325 121.189 250.623 117.937 246 114.534M250.883 51.6093C250.929 51.5157 250.978 51.4224 251.031 51.3293M250.883 51.6093C250.926 51.5192 250.975 51.4256 251.031 51.3293M127 88.1092C119 94.1092 121 74.1092 124 63.6092C125.827 57.2158 130.619 52.8615 133.412 58.1093M127 88.1092C127.541 87.7047 133.823 77.6093 133.412 58.1093M127 88.1092C134.227 82.6891 134.925 82.9813 134.993 63.5527M142 34.6092C139.667 33.1092 135 35.4092 135 56.6092C135 59.1702 135 61.4743 134.993 63.5527M142 34.6092H176C178.544 34.7152 182.827 35.2527 185.917 34.4981M142 34.6092C167.167 35.9426 221.1 38.2093 235.5 36.6093M187 13.1093C187.946 10.9797 189.033 9.35404 190.034 8.07329M187 13.1093L186.951 13.2186M187 13.1093C186.984 13.1456 186.968 13.1821 186.951 13.2186M235.5 36.6093C225.5 35.2759 202.6 33.0093 191 34.6092C188.882 34.9014 187.212 34.8415 185.917 34.4981M235.5 36.6093C239.333 36.7759 247.2 38.2093 248 42.6093C248.8 47.0093 247 65.1093 246 73.6093C245.028 78.6923 244.244 85.0291 244.794 88.6322M103 206.609C103 207.943 103.6 207.809 106 196.609C107.816 188.135 104.319 185.157 100.5 183.682M103 206.609C98.5 198.776 88.9 187.409 86.5 204.609C85.8563 209.222 84.9825 211.661 84 212.592M103 206.609C103 206.609 103.702 202.012 98.5 196.609C85.5 183.109 83.5 201.937 84 212.592M96 182.357C95.2073 182.134 94.5165 181.904 94 181.609C92.0987 180.523 91.5253 179.584 91.799 177.109M96 182.357C93.2152 181.604 83.5 182.609 79 188.109C75.4 192.509 75.5 197.943 76 200.109C77.8295 206.452 81.3192 215.132 84 212.592M96 182.357C97.3274 182.729 98.9406 183.08 100.5 183.682M100.5 183.682C101.98 183.658 105.452 181.909 107.5 175.109C110.06 166.609 113.5 149.109 123 141.109C130.6 134.709 136.167 127.776 138 125.109C138.833 123.109 140.5 122.309 140.5 135.109M140.5 135.109C140.5 151.109 145.5 163.609 144 166.609C142.984 168.642 140.24 171.297 138.42 172.872M140.5 135.109C140.5 142.609 146 161.109 147 164.609C147.839 167.545 140.938 171.184 138.42 172.872M137.539 173.609C136.274 146.46 140.076 156.609 129.5 156.609C118 156.609 109 154.609 110 172.109C110.473 180.382 109.747 188.363 108.833 194.609M137.539 173.609C137.591 174.713 137.651 175.879 137.72 177.109M137.539 173.609C137.614 173.448 137.936 173.196 138.42 172.872M137.539 173.609C137.792 173.405 138.091 173.156 138.42 172.872M137.72 177.109C137.8 178.522 137.893 180.021 138 181.609C138.594 190.394 138.585 197.077 138.21 202.109M137.72 177.109C140.313 174.609 147 169.609 153 169.609C160.5 169.609 166.5 167.109 168 172.109C169.5 177.109 189.5 173.609 195 173.609C200.5 173.609 196.5 167.109 204.5 169.609C212.5 172.109 217.697 171.109 224 175.609C228.563 178.867 219.445 200.466 231.702 209.109M316 208.609C315.428 208.433 314.856 208.264 314.284 208.103M316 208.609C315.572 208.438 315.002 208.266 314.284 208.103M316 208.609C324.5 211.109 326.05 206.755 326.748 204.109M91.799 177.109C91.8244 176.88 91.857 176.638 91.8965 176.381M91.799 177.109C91.8301 176.872 91.8626 176.629 91.8965 176.381M153 110.425C147.771 111.159 143.427 111.9 140.5 112.609C139.113 112.946 137.718 113.413 136.326 113.989M153 110.425C149.349 111.266 143.069 112.658 137.72 113.717M153 110.425C161.91 109.175 173.391 107.948 184.82 106.936M136.326 113.989C121.156 120.269 106.206 139.53 103 144.109C99.5 149.109 96.5 155.109 94 166.609C92.9839 171.283 92.2156 174.306 91.8965 176.381M136.326 113.989C133.464 114.54 130.986 114.964 129.5 115.109C124 115.648 110 131.109 103 138.109C97.5244 143.585 93.3867 165.441 91.8965 176.381M136.326 113.989C136.782 113.901 137.247 113.81 137.72 113.717M108.833 194.609C108.2 198.934 107.477 202.427 107 204.609C105.291 208.536 104.969 216.171 113.401 217.013M108.833 194.609C108.833 197.276 108.833 203.409 108.833 206.609M108.833 194.609V206.609M108.833 206.609C108.833 210.609 111.5 211.109 116.5 210.609C121.5 210.109 127.5 209.609 130 210.109C132.376 210.585 137.422 208.801 138.135 203.042M138.21 202.109C138.198 202.431 138.172 202.742 138.135 203.042M138.21 202.109C138.187 202.427 138.162 202.737 138.135 203.042M113.401 217.013C87.8835 218.021 54.1443 218.6 42 216.109C35.5916 214.795 31.9912 213.102 30.3648 211.085M113.401 217.013C114.07 217.08 114.795 217.104 115.578 217.08M136.494 211.973C137.194 209.943 137.786 207.052 138.135 203.042M136.494 211.973C137.096 211.376 137.736 210.752 138.406 210.109M138.406 210.109C142.602 206.087 147.996 201.362 153 198.109C160.386 193.308 166.135 190.144 177.5 189.422M138.406 210.109C140.437 206.276 146.2 198.009 153 195.609C161.5 192.609 162 189.171 177.5 189.422M246 114.534C245.128 113.892 244.33 113.244 243.6 112.609C239.228 108.807 229.976 103.65 199.873 105.725M246 114.534C233.813 110.464 195.096 104.603 137.72 113.717M199.873 105.725C199.208 105.773 198.538 105.822 197.864 105.872M199.873 105.725C213.715 104.729 225.569 104.224 230 104.609C239.2 105.409 242.9 99.9426 243.6 97.1093C243.914 94.7136 244.323 91.7809 244.794 88.6322M199.873 105.725C199.213 105.771 198.544 105.82 197.864 105.872M197.864 105.872C196.929 105.944 195.974 106.023 195 106.109C191.49 106.419 188.092 106.693 184.82 106.936M197.864 105.872C193.624 106.187 189.226 106.545 184.82 106.936M184.82 106.936C162.744 108.571 146.451 108.754 140.5 108.609C137.667 111.109 132.6 109.309 135 82.1093C135.741 73.7141 135.628 67.6967 134.993 63.5527M231.702 209.109C238.135 209.609 250.7 208.709 249.5 201.109C248 191.609 250.71 175.109 251.669 169.609M231.702 209.109C232.572 209.723 233.55 210.271 234.648 210.743M234.648 210.743C239.056 212.637 245.403 213.299 254.5 212.003M254.5 212.003C255.311 211.888 256.144 211.756 257 211.609C290.38 205.866 308.006 206.672 314.284 208.103M254.5 212.003C263.954 207.637 288.871 200.913 314.284 208.103M326.748 204.109C326.778 203.784 326.789 203.438 326.777 203.078M326.748 204.109C326.834 203.785 326.847 203.441 326.777 203.078M307.5 193.446C308.5 193.306 309.407 193.155 311 193.446M307.5 193.446C308.598 193.28 309.545 193.18 311 193.446M307.5 193.446C304.992 195.809 313.936 205.846 325.5 209.37M326.777 203.078C326.385 201.059 323.411 198.437 316 195.109C313.518 193.995 312.455 193.711 311 193.446M326.777 203.078C326.634 198.676 319 194.609 311 193.446M29.3161 208.609C28.9382 204.864 33.0983 200.283 38 195.109C39.9549 193.046 41.2729 192.445 42 192.815M29.3161 208.609C28.8774 205.109 29 197.509 33 195.109C38 192.109 40 191.02 42 192.815M29.3161 208.609C29.404 209.481 29.7376 210.307 30.3648 211.085M42 192.815C44.505 194.089 39.9981 206.883 30.3648 211.085M256.802 84.1093C257.2 84.5925 260.022 84.0248 267 82.1093C292.5 75.1093 279.5 64.5638 288.5 66.6093C299.5 69.1093 309 82.6093 312.5 96.6093C312.858 98.0393 313.126 99.365 313.3 100.609M256.802 84.1093C255.748 82.8267 271.774 74.1412 272.5 63.6092C273.5 49.1092 271.5 50.1093 262.5 48.1093C255.654 46.5879 252.112 49.4666 251.031 51.3293M256.802 84.1093C268.868 77.4426 288.5 60.6093 270.5 46.6093C265.103 42.4115 253.784 46.4521 251.031 51.3293M279.5 135.806C283.509 134.996 287.58 133.225 291.5 130.109C309.008 116.193 314.827 111.546 313.3 100.609M279.5 135.806C293.2 133.074 319.14 122.209 313.3 100.609M185.917 34.4981C187.686 34.0662 189.063 33.2109 189.5 31.6093C190.917 26.4152 192.779 11.4111 190.034 8.07329M185.917 34.4981C178.381 32.5001 183.535 20.9051 186.951 13.2186M190.034 8.07329C193.264 3.94129 195.607 3.3994 189.5 1.10926C186.979 0.163834 186 5.60926 189.5 7.60926C189.695 7.72052 189.872 7.87666 190.034 8.07329ZM133.412 58.1093C134.073 59.3519 134.622 61.1329 134.993 63.5527M246 91.3012C247.453 92.2056 250.209 89.9915 255 82.1093C265.24 65.2633 261.411 60.4191 256.802 59.7921M246 91.3012C245.379 90.9147 244.996 89.9587 244.794 88.6322M246 91.3012C248.041 80.8174 252.644 61.201 255.935 59.7221M256.802 59.7921C256.526 59.6033 256.236 59.5869 255.935 59.7221M256.802 59.7921C256.515 59.753 256.225 59.7303 255.935 59.7221M244.794 88.6322C246.517 77.1043 249.071 62.6802 250.883 61.1093C251.742 60.3637 253.834 59.6626 255.935 59.7221M242.828 155.68C242.174 152.751 241.892 146.707 243.6 136.109C245.542 124.054 248.313 124.007 250.021 126.169M242.828 155.68C240.989 150.464 236.961 136.711 241.5 130.109C246.585 122.713 246.768 120.873 250.021 126.169M325.5 209.37C330.895 211.014 336.861 211.241 342.5 208.609C350.741 204.763 357.55 203.007 362.831 202.408M325.5 209.37C329.57 211.291 339.568 213.979 347 209.37C352.715 205.826 357.265 203.138 362.831 202.408M362.831 202.408C366.312 201.952 370.19 202.262 375 203.609C373.193 202.615 369.083 201.7 362.831 202.408ZM30.3648 211.085C33 213.609 33.88 224.756 115.578 217.08M212 67.1093C207.5 64.2456 204.4 61.7093 204 60.1093C203.5 58.1093 203.5 55.1093 209.5 60.1093C214.3 64.1093 220.833 70.7759 223.5 73.6093C220.833 72.6093 217.5 70.6093 212 67.1093ZM148.5 81.1093C150.833 80.2759 156.8 77.6093 162 73.6093C167.2 69.6093 171.833 65.2759 173.5 63.6092C174.333 60.9426 174.6 57.0093 169 62.6093C162 69.6093 162 70.6093 158.5 73.6093C155.7 76.0093 150.667 79.6093 148.5 81.1093ZM165 82.1093C165.5 80.6093 166.5 80.1093 168 81.1093C169.177 81.8937 168.5 83.1093 167.5 83.6093C165.5 84.6093 165 82.6093 165 82.1093ZM206.5 80.1093C207.333 81.1093 209.4 82.6093 211 80.6093C212.6 78.6093 210.667 77.4426 209.5 77.1093C208.833 76.9426 207.4 76.7093 207 77.1093C206.5 77.6093 205.5 79.2071 206.5 80.1093Z" stroke="black" stroke-width="2"/>
</svg>
