<svg width="409" height="313" viewBox="0 0 409 313" fill="none" xmlns="http://www.w3.org/2000/svg">
<path d="M196.5 8.5C195 10.5 198.5 13 200 13.5C200.2 13.5667 200.489 13.7044 200.843 13.905C200.814 9.97294 200 9.23647 200 8.5C200 7.5 198 6.5 196.5 8.5Z" fill="black"/>
<path d="M100.097 307.491C100.231 307.494 100.365 307.497 100.5 307.5C95.9276 306.081 85.6874 296.966 79.5153 271.942C81.5427 282.614 82.4875 297.984 91 304.452C93.3786 306.259 96.3481 307.371 100.097 307.491Z" fill="black"/>
<path d="M74.5 202.5C77 176 95.8333 173.667 103.5 173C108 172.779 118 172.153 122 171.418C121.272 170.764 120.61 170.041 120.055 169.248C107.203 169.332 80.8 171.6 78 180C74.7904 189.629 63.5922 189.587 74.865 249.662C72.6431 235.339 73.1005 217.335 74.5 202.5Z" fill="black"/>
<path d="M173 168.508C202.187 169.037 209.834 181.034 210 187C210.319 181 206.662 168.6 189.479 167C172.296 165.4 162.68 166.333 160.02 167C160.038 167.497 160.062 167.997 160.091 168.5L173 168.508Z" fill="black"/>
<path d="M217 299.779C222.625 299.915 229.921 299.763 231.5 298.5C233.003 297.298 233.422 293.024 233.408 288.611C233.228 297.311 222.476 299.688 217 299.779Z" fill="black"/>
<path d="M276 279C273.833 279 266.8 278.5 256 276.5C250.7 275.519 247.832 278.35 246.404 282.336C247.752 279.378 252.188 277.28 261.5 280.5C272 284.131 271 282 285.5 283.5C296.373 284.625 298.827 292.866 298.729 297.6C298.932 292.88 298.055 288.032 297 285.5C295.826 282.681 292.555 281.077 288.743 280.167C288.108 280.182 287.496 280.027 287 279.804C283.143 279.106 278.99 279 276 279Z" fill="black"/>
<path d="M250.5 202C248.438 203 243.043 204.339 234 217C233.029 218.36 231.994 220.814 230.974 224C253.354 189.2 266.506 207.833 270.285 221.5C266.535 200.703 255.617 199.519 250.5 202Z" fill="black"/>
<path d="M219.647 205.906C222.281 201.633 225.382 197.179 227.5 189.5C230.396 179.003 228.051 172.699 223.5 162.809C229.817 179.822 223.564 198.629 219.647 205.906Z" fill="black"/>
<path d="M276.066 158.104C276.08 158.278 276.095 158.452 276.11 158.625C276.913 158.593 277.723 158.552 278.537 158.5C300.869 157.075 326.079 147.85 308.5 118C317 135.5 307.5 143 303 149C299.382 153.824 289.625 157.031 276.066 158.104Z" fill="black"/>
<path d="M266.165 109C265.046 105.579 265.393 104.365 266.65 104.607C268.82 105.024 273.704 109.778 278.44 115C274.57 111.833 266.697 106.2 266.165 109Z" fill="black"/>
<path d="M277.5 187C278.7 174.2 278.691 162.667 278.537 158.5C277.723 158.552 276.913 158.593 276.11 158.625C277.04 169.735 277.434 180.098 277.5 187Z" fill="black"/>
<path d="M271 82C263.181 79.8675 259.909 78.9982 251.128 81.5472C247.071 83.3159 243.032 85.1022 239.078 86.8099C260.489 78.6322 277.174 84.2222 283.168 88.3744C278.755 85.1993 274.519 82.9598 271 82Z" fill="black"/>
<path d="M272.589 72.4535C282.591 67.6663 279.235 66.0584 280.5 61C281.497 57.0102 276.304 40.639 271.977 28.5C281.078 59.4232 276.234 70.6343 272.589 72.4535Z" fill="black"/>
<path d="M176 63C169.5 58.5 166.5 54.5 173.5 49C168.5 52.2859 162.7 60.3719 179.5 66.4288C178.374 65.0105 177.204 63.8337 176 63Z" fill="black"/>
<path d="M176 123.5C176.813 122.795 177.884 121.984 179.014 121.132L179.5 120.75L183 118C183.513 117.487 184.548 116.987 185.104 116.5C200.216 103.242 230.375 99.2482 232.582 97.6372C157.848 106.547 153.388 154.828 160.5 177.855C160.8 177.338 160.845 175.802 160.5 173C160.312 171.471 160.177 169.971 160.091 168.5C160.062 167.997 160.038 167.497 160.02 167C159.19 144.261 170.013 128.72 176 123.5Z" fill="black"/>
<path d="M262 2C259.5 2.5 245.836 10.943 242 13.5C237.5 16.5 229.896 19.9588 221.225 23.5C243.405 17.9 258.897 7.02828 263.247 2.69495C262.906 2.16362 262.503 1.8993 262 2Z" fill="black"/>
<path d="M203 121C202.552 120.944 202.046 120.913 201.5 120.904L206.841 130C207.069 129.671 207.254 129.337 207.399 129L203 121Z" fill="black"/>
<path d="M185.104 116.5C187.384 116 192.901 115.3 196.723 116.5C197.291 116.105 197.884 115.729 198.5 115.379C195.569 114.584 188.786 113.694 185.104 116.5Z" fill="black"/>
<path d="M201.83 97.4206C201.336 97.4367 200.816 97.4249 200.282 97.3791C189.64 98.1521 171.338 100.334 160.02 106C144.163 113.938 138.814 125.814 134.11 136.256L134 136.5C131.263 142.574 133.309 145.931 135.844 147.533C136.812 147.908 137.774 148.32 138.731 148.656C134.692 146.094 131.916 145.208 134.11 138C137.61 126.5 147.5 116 154 112C158.875 109 169.8 100.752 189 99.5C193.517 97.8905 196.105 98.2139 201.83 97.4206Z" fill="black"/>
<path d="M267.5 112.5C266.926 111.141 266.485 109.98 266.165 109C265.046 105.579 265.393 104.365 266.65 104.607C265.433 104.238 263.5 104.9 265.5 110.5C267.5 116.1 271.667 133.701 273.5 141.802C274.34 141.626 275.176 141.43 276 141.209C274.8 131.776 269.833 118.139 267.5 112.5Z" fill="black"/>
<path d="M23.32 295.505C22.8365 295.664 22.3349 295.81 21.8182 295.945C31.0798 302.172 56.1025 310.46 106 308.895C99.4949 308.627 95.4554 308.025 93.141 307.294C61.8193 306.224 42.8358 302.976 29.5 298C27.0785 297.096 25.0333 296.266 23.32 295.505Z" fill="black"/>
<path d="M208.5 305.349C205.696 306.944 186.738 308.006 182.5 307.545C202.5 310.851 248.1 314.828 208.5 305.349Z" fill="black"/>
<path d="M1 297C5.94225 297.482 15.139 297.685 21.8182 295.945M210 187C211.311 194.804 213.085 206.359 214.749 219M210 187C209.834 181.034 202.187 169.037 173 168.508M210 187C210.319 181 206.662 168.6 189.479 167C172.296 165.4 162.68 166.333 160.02 167M172.5 168.5C172.667 168.502 172.834 168.505 173 168.508M78.5 267.5C78.8823 268.844 79.211 270.34 79.5153 271.942M78.5 267.5C78.824 269.033 79.163 270.514 79.5153 271.942M78.5 267.5C77.0893 261.027 75.8851 255.098 74.865 249.662M78.5 267.5C77.3725 263.272 76.0008 256.984 74.865 249.662M100.5 307.5C100.365 307.497 100.231 307.494 100.097 307.491M100.5 307.5C95.9276 306.081 85.6874 296.966 79.5153 271.942M100.5 307.5C100.365 307.498 100.23 307.495 100.097 307.491M100.5 307.5C115.857 307.84 119.274 307.912 137 307.545M219.321 282C219.404 281.037 219.465 280.037 219.5 279C220 264.24 217.528 240.106 214.749 219M219.321 282C219.38 280 220.5 275.9 224.5 275.5M219.321 282C218.597 290.304 216.127 295.92 213 299.626M224.5 275.5C229.5 275 232.5 275 233 280.5C233.186 282.541 233.371 285.271 233.403 288M224.5 275.5C222.754 263.011 226.743 237.213 230.974 224M213 299.626C208.234 305.273 201.945 306.481 198 306C187.441 306.352 155.091 307.171 137 307.545M213 299.626C214.122 299.687 215.502 299.743 217 299.779M276 279C269.5 279 274.5 258.5 271 226.5C270.805 224.719 270.565 223.055 270.285 221.5M276 279C273.833 279 266.8 278.5 256 276.5C250.7 275.519 247.832 278.35 246.404 282.336M276 279C278.99 279 283.143 279.106 287 279.804M287 279.804C287.496 280.027 288.108 280.182 288.743 280.167M287 279.804C287.59 279.911 288.172 280.031 288.743 280.167M277.5 187C277 189.833 277.2 198.7 282 211.5C288 227.5 292 262.5 292.5 272.5C292.801 278.517 290.669 280.123 288.743 280.167M277.5 187C278.7 174.2 278.691 162.667 278.537 158.5M277.5 187C277.434 180.098 277.04 169.735 276.11 158.625M203 121C202.552 120.944 202.046 120.913 201.5 120.904M203 121C205.868 121.358 208.992 125.315 207.399 129M203 121L207.399 129M265.5 158.5C246.5 158.5 230 145 223.5 139C217 133 234 131.5 219 118C211.455 111.209 204.042 112.233 198.5 115.379M265.5 158.5C269.225 158.5 272.759 158.365 276.066 158.104M265.5 158.5C268.758 158.711 272.368 158.774 276.11 158.625M308.5 118C317 135.5 307.5 143 303 149C299.382 153.824 289.625 157.031 276.066 158.104M308.5 118C302.72 106.099 292.546 95.1231 283.168 88.3744M308.5 118C326.079 147.85 300.869 157.075 278.537 158.5M204 97.1451C207.833 96.4785 220.2 92.9 237 86.5C243.073 84.1867 247.556 82.5841 251.128 81.5472M204 97.1451C202.91 97.2025 201.66 97.279 200.282 97.3791M204 97.1451C203.376 97.2938 202.637 97.3944 201.83 97.4206M173.5 49C166.5 54.5 169.5 58.5 176 63C177.204 63.8337 178.374 65.0105 179.5 66.4288M173.5 49C180.5 43.5 186.5 39 195.5 34.5C200.582 31.9588 204.867 30.3743 207.365 28.576M173.5 49C168.5 52.2859 162.7 60.3719 179.5 66.4288M262 2C259.5 2.5 245.836 10.943 242 13.5C237.5 16.5 229.896 19.9588 221.225 23.5M262 2C264.5 1.5 264.5 10 267 15.5C267.838 17.3426 269.798 22.3842 271.977 28.5M262 2C262.503 1.8993 262.906 2.16362 263.247 2.69495C258.897 7.02828 243.405 17.9 221.225 23.5M212.704 96.4999C218.987 94.9833 226.264 92.2189 234 88.9745M144 169.109C144.833 166.74 146.5 161.6 146.5 160C146.5 158 145 153 140 149.5C139.552 149.186 139.128 148.908 138.731 148.656M144 169.109C143.16 169.154 142.327 169.2 141.5 169.248M144 169.109L156.064 168.5M141.5 169.248C141.167 164.165 139.2 154.5 134 156.5C130.482 157.853 129.817 163.709 130.116 169.109M141.5 169.248L130.215 170.5M214.749 219C215.337 213.355 217.308 209.702 219.647 205.906M290.371 310C290.09 310.013 289.799 310.013 289.5 310C278 309.5 267.5 309 255 307.5C245 306.3 244.5 299 245.5 295.5C245.037 292.184 244.939 287.442 246.036 283.5M290.371 310C296.059 309.741 298.248 304.34 298.677 298.5M290.371 310C292.635 310.117 295.513 310.173 298.677 310.111M327.5 303.5C322.592 308.408 309.086 309.905 298.677 310.111M327.5 303.5C326.3 307.5 307.784 309.574 298.677 310.111M327.5 303.5C328.366 302.634 328.646 301.885 328.5 301.251M360.5 299C360.167 296.167 358.4 292.2 354 299M360.5 299C360.558 300.079 360.419 301.286 360.003 302.5M360.5 299C359.833 294.667 357.6 288.6 354 299M354 299C349.6 305.8 388.5 306.167 408.5 305.5M176 123.5L189.479 133.053M176 123.5C170.013 128.72 159.19 144.261 160.02 167M176 123.5C176.813 122.795 177.884 121.984 179.014 121.132M176 123.5L179.014 121.132M183 118L204.212 132.355M183 118C183.513 117.487 184.548 116.987 185.104 116.5M183 118L179.5 120.75L179.014 121.132M183 118C181.819 119.023 180.374 120.106 179.014 121.132M189.479 133.053C192.902 134.431 198.014 135.346 203 133C203.075 132.965 203.149 132.929 203.222 132.893C203.575 132.72 203.905 132.54 204.212 132.355M189.479 133.053C188.233 132.552 187.211 131.989 186.5 131.5C187.833 135.333 193 143 203 143C203.171 143 203.341 142.999 203.509 142.997M204.212 132.355C205.407 131.636 206.263 130.835 206.841 130M203.509 142.997C207.312 142.951 210.307 142.386 212.704 141.543C213.786 141.161 214.746 140.723 215.604 140.25M203.509 142.997L219.647 154.435M219.647 154.435L227.5 160C235.5 160 235.167 155.333 234 153L215.604 140.25M219.647 154.435C221.041 157.544 222.342 160.292 223.5 162.809M215.604 140.25C218.887 138.437 220.659 136.109 222 134.5C224.5 131.5 223.5 132 234 137.5C242.4 141.9 252.833 143 257 143C260.409 143.227 267.07 143.145 273.5 141.802M189 99.5C169.8 100.752 158.875 109 154 112C147.5 116 137.61 126.5 134.11 138C131.916 145.208 134.692 146.094 138.731 148.656M189 99.5C172.762 105.286 161.417 117.386 157 128.873M189 99.5C193.517 97.8905 196.105 98.2139 201.83 97.4206M157 128.873C154.2 134.675 150.5 142.709 148.5 145C145.219 150.071 141.999 149.803 138.731 148.656M157 128.873C151.028 138.954 152.868 155.873 155.671 167M185.104 116.5C187.384 116 192.901 115.3 196.723 116.5M185.104 116.5C200.216 103.242 230.375 99.2482 232.582 97.6372M185.104 116.5C188.786 113.694 195.569 114.584 198.5 115.379M196.723 116.5C194.277 118.2 192.306 120.242 191 122C193.293 121.57 198.15 120.844 201.5 120.904M196.723 116.5C197.291 116.105 197.884 115.729 198.5 115.379M201.5 120.904L206.841 130M206.841 130C207.069 129.671 207.254 129.337 207.399 129M156.064 168.5C157.821 174.95 159.819 179.026 160.5 177.855M156.064 168.5C155.932 168.013 155.801 167.513 155.671 167M160.091 168.5C160.177 169.971 160.312 171.471 160.5 173C160.845 175.802 160.8 177.338 160.5 177.855M160.091 168.5L173 168.508M160.091 168.5C160.062 167.997 160.038 167.497 160.02 167M122 171.418C124.761 173.898 128.482 175.392 131 176C130.691 174.5 130.392 172.568 130.215 170.5M122 171.418C118 172.153 108 172.779 103.5 173C95.8333 173.667 77 176 74.5 202.5C73.1005 217.335 72.6431 235.339 74.865 249.662M122 171.418C121.272 170.764 120.61 170.041 120.055 169.248M130.215 170.5C130.175 170.042 130.142 169.577 130.116 169.109M207.365 28.576C209.29 27.1898 210.153 25.6765 209.5 23.5C208.2 19.1667 203.144 15.2089 200.843 13.905M207.365 28.576C204.679 28.2404 199.746 26.2874 200.5 19.5C200.764 17.1282 200.853 15.312 200.843 13.905M207.365 28.576C208.24 28.6854 208.877 28.6229 209 28.5C209.214 28.286 214.739 26.1491 221.225 23.5M200.843 13.905C200.814 9.97294 200 9.23647 200 8.5C200 7.5 198 6.5 196.5 8.5C195 10.5 198.5 13 200 13.5C200.2 13.5667 200.489 13.7044 200.843 13.905ZM298.677 298.5C298.704 298.218 298.722 297.917 298.729 297.6M298.677 298.5C298.699 298.201 298.716 297.901 298.729 297.6M246.036 283.5C246.111 283.104 246.232 282.713 246.404 282.336M246.036 283.5C246.146 283.103 246.269 282.714 246.404 282.336M270.285 221.5C266.535 200.703 255.617 199.519 250.5 202C248.438 203 243.043 204.339 234 217C233.029 218.36 231.994 220.814 230.974 224M270.285 221.5C266.506 207.833 253.354 189.2 230.974 224M217 299.779C222.625 299.915 229.921 299.763 231.5 298.5C233.003 297.298 233.422 293.024 233.408 288.611M217 299.779C222.476 299.688 233.228 297.311 233.408 288.611M233.403 288C233.411 288.207 233.412 288.411 233.408 288.611M233.403 288C233.406 288.204 233.407 288.408 233.408 288.611M314.053 300.5C313.63 302 316.805 304.354 327.5 307.5C329.253 308.016 330.918 308.455 332.5 308.824M314.053 300.5C313.536 299.5 314.1 297.5 320.5 297.5C328.5 297.5 328 300.501 328.5 301.251M314.053 300.5C314.83 297.748 327.72 297.87 328.5 301.251M332.5 308.824C351.168 313.183 358.194 307.775 360.003 302.5M332.5 308.824C339.668 309.883 355.205 310.1 360.003 302.5M219.647 205.906C222.281 201.633 225.382 197.179 227.5 189.5C230.396 179.003 228.051 172.699 223.5 162.809M219.647 205.906C223.564 198.629 229.817 179.822 223.5 162.809M283.168 88.3744C278.755 85.1993 274.519 82.9598 271 82C263.181 79.8675 259.909 78.9982 251.128 81.5472M283.168 88.3744C277.174 84.2222 260.489 78.6322 239.078 86.8099M234 88.9745C235.719 88.165 237.413 87.4458 239.078 86.8099M234 88.9745C235.673 88.2729 237.367 87.5487 239.078 86.8099M271.977 28.5C276.304 40.639 281.497 57.0102 280.5 61C279.235 66.0584 282.591 67.6663 272.589 72.4535M271.977 28.5C281.078 59.4232 276.234 70.6343 272.589 72.4535M179.5 66.4288C184.452 72.6665 188.556 83.5747 191 90.5C192.709 95.3431 196.803 97.081 200.282 97.3791M160.5 177.855C153.388 154.828 157.848 106.547 232.582 97.6372M232.582 97.6372C233.38 97.0552 230.528 96.7843 222 96.5C214.529 96.251 207.83 96.5892 201.83 97.4206M278.44 115C280.578 117.357 282.685 119.808 284.5 122C287 126 290 135 282 139C280.166 139.917 278.122 140.641 276 141.209M278.44 115C274.57 111.833 266.697 106.2 266.165 109M278.44 115C273.704 109.778 268.82 105.024 266.65 104.607M266.165 109C266.485 109.98 266.926 111.141 267.5 112.5C269.833 118.139 274.8 131.776 276 141.209M266.165 109C265.046 105.579 265.393 104.365 266.65 104.607M276 141.209C275.176 141.43 274.34 141.626 273.5 141.802M278.537 158.5C277.723 158.552 276.913 158.593 276.11 158.625M155.671 167L130.116 169.109M120.055 169.248C118.675 167.276 117.953 164.87 118.5 162C120.5 151.5 126.327 146 132 146.5C133.297 146.614 134.577 147.042 135.844 147.533M120.055 169.248C107.203 169.332 80.8 171.6 78 180C74.7904 189.629 63.5922 189.587 74.865 249.662M100.097 307.491C96.3481 307.371 93.3786 306.259 91 304.452M100.097 307.491C97.7128 307.437 95.3949 307.371 93.141 307.294M79.5153 271.942C81.5427 282.614 82.4875 297.984 91 304.452M246.404 282.336C247.752 279.378 252.188 277.28 261.5 280.5C272 284.131 271 282 285.5 283.5C296.373 284.625 298.827 292.866 298.729 297.6M298.729 297.6C298.932 292.88 298.055 288.032 297 285.5C295.826 282.681 292.555 281.077 288.743 280.167M276.066 158.104C276.08 158.278 276.095 158.452 276.11 158.625M251.128 81.5472C247.071 83.3159 243.032 85.1022 239.078 86.8099M251.128 81.5472C255.93 79.454 260.758 77.3853 265.5 75.5C268.353 74.3659 270.647 73.3794 272.492 72.5C272.524 72.4852 272.557 72.4697 272.589 72.4535M138.731 148.656C137.774 148.32 136.812 147.908 135.844 147.533M138.731 148.656C137.857 148.503 136.815 148.147 135.844 147.533M134 136.5L134.11 136.256M134 136.5C131.263 142.574 133.309 145.931 135.844 147.533M134 136.5C134.037 136.419 134.073 136.337 134.11 136.256M201.83 97.4206C201.336 97.4367 200.816 97.4249 200.282 97.3791M200.282 97.3791C189.64 98.1521 171.338 100.334 160.02 106C144.163 113.938 138.814 125.814 134.11 136.256M91 304.452C90.0665 305.342 90.3451 306.411 93.141 307.294M137 307.545C145.167 306.785 165.7 305.721 182.5 307.545M137 307.545C114.722 309.226 115.488 309.284 106 308.895M219.5 282C219.375 288.869 216.81 300.619 208.5 305.349M182.5 307.545C186.738 308.006 205.696 306.944 208.5 305.349M182.5 307.545C202.5 310.851 248.1 314.828 208.5 305.349M273.5 141.802C271.667 133.701 267.5 116.1 265.5 110.5C263.5 104.9 265.433 104.238 266.65 104.607M17.5 293C8.5 285.5 33.4505 287.969 28 293C26.8519 294.06 25.2277 294.879 23.32 295.505M17.5 293C18.208 293.882 20.24 294.884 21.8182 295.945M17.5 293C18.6861 293.734 21.2061 294.567 23.32 295.505M106 308.895C56.1025 310.46 31.0798 302.172 21.8182 295.945M106 308.895C99.4949 308.627 95.4554 308.025 93.141 307.294M23.32 295.505C22.8365 295.664 22.3349 295.81 21.8182 295.945M23.32 295.505C25.0333 296.266 27.0785 297.096 29.5 298C42.8358 302.976 61.8193 306.224 93.141 307.294" stroke="black" stroke-width="2"/>
<path d="M110.5 214L87.5004 236.5C86.8337 238 86.9004 242.1 92.5004 246.5C99.5004 252 112 265 112 261C112 257 115.5 253.5 108.5 250C102.9 247.2 97.8333 242.5 96 240.5C95 240 94 238.5 98 236.5C102 234.5 109 228 112 225C114.001 223.667 115 219 110.5 214Z" fill="black" stroke="black"/>
<path d="M150 254.5L169 210C169.833 209 171.9 207.6 173.5 210C175.5 213 176.5 214 175 219C173.8 223 165.167 243.333 161 253C159.707 256 158.5 258 156 258C146.383 258 149.359 256 150 254.5Z" fill="black" stroke="black"/>
<path d="M194.5 233C196.5 231 198.374 230.83 194 228C185.5 222.5 181.708 222.103 185.5 213C186.958 209.5 194 219 203 225.5C208.5 229.472 209.5 231 206.5 234C201.5 238 193 248 188.5 251.5C185.099 254.145 184.167 249.5 183.5 246C182.833 242.5 184 241 189.5 237C190.527 236.253 193.5 234 194.5 233Z" fill="black" stroke="black"/>
<path d="M240 53.5C244.8 41.9 246.333 50 247 56.5C247.256 59 244.5 57.5 243.5 58.5C242.662 59.338 243.5 59.5 241.5 60.5C238.37 62.0652 239.5 61.4999 237 64C235 66 235.5 66 233 67C231 67.8 223.5 71.3485 220 73.0228C227.963 68.1938 236.804 61.2238 240 53.5Z" fill="black"/>
<path d="M219 27C217 29.5 212.7 35.1 211.5 37.5C210 40.5 209.5 41 206.5 41.5C204.1 41.9 202.5 41.3333 202 41C201 40.5 200 39.3 204 38.5C208 37.7 215.667 30.5 219 27Z" fill="black"/>
<path d="M179 59C179.833 57.5 182.3 54.6 185.5 55C189.5 55.5 191.5 54.5 193.5 53C195.5 51.5 200 46 194.5 48.5C189 51 180.5 54.5 179 59Z" fill="black"/>
<path d="M195.5 61.5C195.5 62.3333 196 63.6 198 62C200 60.4 198.5 59.6667 197.5 59.5C196.833 59.5 195.5 59.9 195.5 61.5Z" fill="black"/>
<path d="M216.5 45C216.167 46 216 47.7 218 46.5C220.5 45 217.5 42 216.5 45Z" fill="black"/>
<path d="M209.5 78.5C212.229 77.3304 216.004 75.4462 220 73.0228M220 73.0228C227.963 68.1938 236.804 61.2238 240 53.5C244.8 41.9 246.333 50 247 56.5C247.256 59 244.5 57.5 243.5 58.5C242.662 59.338 243.5 59.5 241.5 60.5C238.37 62.0652 239.5 61.4999 237 64C235 66 235.5 66 233 67C231 67.8 223.5 71.3485 220 73.0228ZM219 27C217 29.5 212.7 35.1 211.5 37.5C210 40.5 209.5 41 206.5 41.5C204.1 41.9 202.5 41.3333 202 41C201 40.5 200 39.3 204 38.5C208 37.7 215.667 30.5 219 27ZM216.5 45C216.167 46 216 47.7 218 46.5C220.5 45 217.5 42 216.5 45ZM195.5 61.5C195.5 62.3333 196 63.6 198 62C200 60.4 198.5 59.6667 197.5 59.5C196.833 59.5 195.5 59.9 195.5 61.5ZM179 59C179.833 57.5 182.3 54.6 185.5 55C189.5 55.5 191.5 54.5 193.5 53C195.5 51.5 200 46 194.5 48.5C189 51 180.5 54.5 179 59Z" stroke="black"/>
</svg>
