<svg width="57" height="23" viewBox="0 0 57 23" fill="none" xmlns="http://www.w3.org/2000/svg">
<path d="M3.60664 1.12092H1V22H3.60664V11.0043L11.9913 22H15.7275L6.90837 10.7048L15.293 1.07813L11.7306 1.12092L3.60664 10.8331V1.12092Z" fill="black"/>
<path d="M22.7654 1.59155V4.45815C21.4186 5.14271 19.7678 6.08398 18.5948 8.77943C17.6564 10.9358 18.2038 13.2433 18.5948 14.1276C18.7251 14.9119 19.6896 16.8829 22.5047 18.4916C25.3199 20.1003 28.4276 19.1619 29.6295 18.4916C30.9618 17.9354 33.7133 15.8218 34.0608 11.8172C34.4084 7.81249 31.2225 5.29959 29.5861 4.54372V1.63434C31.7583 2.14776 35.7117 4.97157 36.5806 8.90779C37.4495 12.844 36.727 16.153 33.6264 19.0906C30.1943 22.3423 23.4171 23.5145 18.5948 19.0906C16.0577 16.7631 15.3655 13.2719 15.3365 11.8172C15.2351 10.8331 15.4581 8.23179 17.1611 5.69891C18.8641 3.16604 21.6069 1.90531 22.7654 1.59155Z" fill="black"/>
<path d="M24.981 11.27V1.12052C26.057 0.918768 27.1546 1.0068 27.5801 1.12052C27.5801 1.12052 27.5971 11.2652 27.5801 11.27C26.4858 11.5771 25.3914 11.3979 24.981 11.27Z" fill="black"/>
<path d="M39.9692 22V1.07813H43.7488L53.1762 17.7215V1.07813H56V22H52.3507L42.7931 5.09992V22H39.9692Z" fill="black"/>
<path d="M3.60664 1.12092H1V22H3.60664V11.0043L11.9913 22H15.7275L6.90837 10.7048L15.293 1.07813L11.7306 1.12092L3.60664 10.8331V1.12092Z" stroke="black"/>
<path d="M22.7654 1.59155V4.45815C21.4186 5.14271 19.7678 6.08398 18.5948 8.77943C17.6564 10.9358 18.2038 13.2433 18.5948 14.1276C18.7251 14.9119 19.6896 16.8829 22.5047 18.4916C25.3199 20.1003 28.4276 19.1619 29.6295 18.4916C30.9618 17.9354 33.7133 15.8218 34.0608 11.8172C34.4084 7.81249 31.2225 5.29959 29.5861 4.54372V1.63434C31.7583 2.14776 35.7117 4.97157 36.5806 8.90779C37.4495 12.844 36.727 16.153 33.6264 19.0906C30.1943 22.3423 23.4171 23.5145 18.5948 19.0906C16.0577 16.7631 15.3655 13.2719 15.3365 11.8172C15.2351 10.8331 15.4581 8.23179 17.1611 5.69891C18.8641 3.16604 21.6069 1.90531 22.7654 1.59155Z" stroke="black"/>
<path d="M24.981 11.27V1.12052C26.057 0.918768 27.1546 1.0068 27.5801 1.12052C27.5801 1.12052 27.5971 11.2652 27.5801 11.27C26.4858 11.5771 25.3914 11.3979 24.981 11.27Z" stroke="black"/>
<path d="M39.9692 22V1.07813H43.7488L53.1762 17.7215V1.07813H56V22H52.3507L42.7931 5.09992V22H39.9692Z" stroke="black"/>
</svg>
